<svg width="39" height="32" viewBox="0 0 39 32" fill="none" xmlns="http://www.w3.org/2000/svg">
    <path fill-rule="evenodd" clip-rule="evenodd" d="M33.1023 6.12733C32.8748 5.89028 32.7473 5.57048 32.7475 5.23733V1.14767C32.7475 0.513333 32.2533 0 31.6432 0H28.056C27.4461 0 26.9516 0.513333 26.9516 1.14733V4.874C26.9516 5.50733 27.4461 6.02067 28.0556 6.02067H31.9915C32.151 6.02088 32.3088 6.05363 32.4559 6.11702C32.603 6.18042 32.7363 6.2732 32.8483 6.39L32.8489 6.391C33.0766 6.62782 33.2042 6.94758 33.2038 7.28067V30.853C33.2038 31.4863 33.6986 31.9997 34.3081 31.9997H37.8953C38.5055 31.9997 39 31.4863 39 30.853V7.64333C39 7.01 38.5055 6.49667 37.8956 6.49667H33.9591C33.7997 6.4965 33.6419 6.4638 33.4948 6.40046C33.3477 6.33712 33.2143 6.2444 33.1023 6.12767V6.12733ZM6.14879 19.3843L6.15332 19.3797C6.38016 19.1447 6.68735 19.013 7.00783 19.013H16.7445C17.3517 19.013 17.844 18.502 17.844 17.8717V13.7697C17.844 13.439 17.9707 13.1217 18.1972 12.888L18.2007 12.8837C18.3128 12.7676 18.4461 12.6755 18.5929 12.6126C18.7397 12.5497 18.8972 12.5172 19.0562 12.517H22.9966C23.6039 12.517 24.0961 12.006 24.0961 11.3753V7.638C24.0961 7.00733 23.6039 6.496 22.997 6.496H19.0552C18.8959 6.49583 18.7381 6.46316 18.5911 6.39988C18.4441 6.3366 18.3108 6.24397 18.1988 6.12733C17.9712 5.8903 17.8437 5.57049 17.844 5.23733V1.142C17.844 0.511333 17.3517 0 16.7445 0H1.11796C0.500328 0 0 0.52 0 1.161V4.86033C0 5.50133 0.500328 6.02133 1.11764 6.02133H17.0873C17.4091 6.02133 17.7176 6.15367 17.9451 6.39033C18.1729 6.62765 18.3005 6.94782 18.3002 7.28133V11.7357C18.3002 12.0687 18.1725 12.3877 17.9457 12.6223L17.9425 12.6257C17.7156 12.8607 17.4084 12.9923 17.088 12.9923H7.35133C6.74439 12.9923 6.25216 13.5037 6.25216 14.134V18.232C6.25246 18.5634 6.12551 18.8814 5.89895 19.117L5.89538 19.1213C5.78401 19.2372 5.6514 19.3293 5.50523 19.3922C5.35906 19.4551 5.20222 19.4875 5.04379 19.4877H1.09917C0.492551 19.4877 0 19.9987 0 20.63V24.3667C0 24.9977 0.492227 25.5087 1.09917 25.5087H5.04768C5.36686 25.5087 5.67341 25.6407 5.89927 25.8753H5.8996C6.12592 26.111 6.25263 26.4291 6.25216 26.7603V30.8577C6.25216 31.4887 6.74471 31.9997 7.35133 31.9997H22.9782C23.5955 31.9997 24.0961 31.48 24.0961 30.839V27.14C24.0961 26.4983 23.5955 25.979 22.9782 25.979L7.00751 25.9787C6.84859 25.9785 6.69126 25.9461 6.54456 25.8832C6.39786 25.8204 6.26468 25.7283 6.15268 25.6123L6.14846 25.6077C5.92237 25.3734 5.79551 25.0567 5.79558 24.7267V20.266C5.79534 19.9357 5.92221 19.6187 6.14846 19.3843" fill="#3DE392"/>
    <path fill-rule="evenodd" clip-rule="evenodd" d="M36.6901 18.428L36.6962 18.434C36.7179 18.4567 36.7302 18.4873 36.7302 18.52V20.3557C36.7302 20.3877 36.7179 20.419 36.6962 20.4413L36.6901 20.4473C36.6793 20.4586 36.6665 20.4675 36.6524 20.4736C36.6382 20.4797 36.6231 20.4829 36.6078 20.483H35.5429C35.5119 20.4828 35.4822 20.47 35.4603 20.4473L35.4545 20.4413C35.4326 20.4184 35.4204 20.3875 35.4204 20.3553V18.5197C35.4204 18.4873 35.4328 18.4563 35.4545 18.4337L35.4609 18.4277C35.4717 18.4163 35.4845 18.4073 35.4987 18.4012C35.5129 18.3951 35.5282 18.3919 35.5436 18.392H36.6071C36.6385 18.392 36.6683 18.4047 36.6901 18.4277V18.428ZM36.6826 18.3143V17.883C36.6826 17.8163 36.6301 17.7617 36.5653 17.7617H35.5851C35.5697 17.7618 35.5544 17.765 35.5402 17.7711C35.526 17.7773 35.5131 17.7862 35.5023 17.7975C35.4915 17.8088 35.4829 17.8221 35.4771 17.8368C35.4713 17.8514 35.4683 17.8672 35.4684 17.883V18.3147C35.4683 18.3469 35.4559 18.3778 35.4337 18.4007L35.4282 18.406C35.4175 18.4174 35.4046 18.4265 35.3903 18.4327C35.3761 18.4389 35.3607 18.4421 35.3453 18.442H34.9305C34.8993 18.4423 34.8695 18.4552 34.8476 18.478C34.8257 18.5008 34.8134 18.5316 34.8135 18.5637V20.3117C34.8135 20.379 34.8657 20.4337 34.9302 20.4337H35.3453C35.3764 20.4337 35.4062 20.4463 35.4282 20.469L35.4337 20.475C35.4561 20.498 35.4681 20.529 35.4681 20.5613V20.9923C35.4681 21.059 35.5206 21.114 35.5847 21.114H36.5653C36.6301 21.114 36.6826 21.059 36.6826 20.992V20.5613C36.6826 20.529 36.6946 20.498 36.717 20.4747L36.7225 20.4693C36.7333 20.4581 36.7462 20.4493 36.7604 20.4432C36.7745 20.4371 36.7897 20.434 36.8051 20.434H37.2199C37.2847 20.434 37.3372 20.379 37.3372 20.3123V18.5637C37.3373 18.5316 37.325 18.5008 37.3031 18.478C37.2812 18.4552 37.2514 18.4423 37.2202 18.442H36.8051C36.7897 18.442 36.7744 18.4388 36.7602 18.4326C36.7461 18.4264 36.7332 18.4174 36.7225 18.406L36.717 18.4007C36.6949 18.3778 36.6826 18.3469 36.6826 18.3147V18.3143ZM37.0912 12.4427L37.0847 12.449C37.0735 12.4607 37.06 12.47 37.0452 12.4763C37.0304 12.4827 37.0146 12.486 36.9986 12.486H36.5209C36.4885 12.486 36.4574 12.4727 36.4344 12.449L36.4282 12.4423C36.4053 12.4184 36.3925 12.3862 36.3926 12.3527V9.92501C36.3926 9.89153 36.3797 9.85941 36.3567 9.83567C36.3338 9.81194 36.3026 9.79852 36.2701 9.79834H35.8803C35.8478 9.7986 35.8167 9.81207 35.7938 9.83579C35.7709 9.85952 35.7581 9.89158 35.7581 9.92501V12.3527C35.7581 12.3867 35.7455 12.4187 35.7225 12.4427L35.7166 12.449C35.7052 12.4608 35.6917 12.4701 35.6768 12.4765C35.6619 12.4828 35.6459 12.4861 35.6298 12.486H35.1525C35.1197 12.486 35.0889 12.4727 35.0659 12.449L35.0598 12.4423C35.0369 12.4184 35.0241 12.3862 35.0241 12.3527V9.92501C35.0241 9.89153 35.0112 9.85941 34.9883 9.83567C34.9653 9.81194 34.9342 9.79852 34.9016 9.79834H34.5118C34.4793 9.7986 34.4483 9.81207 34.4254 9.83579C34.4025 9.85952 34.3896 9.89158 34.3896 9.92501V12.307C34.3896 12.3773 34.4447 12.434 34.5118 12.434H34.9454C34.9778 12.434 35.0089 12.4473 35.0319 12.4713L35.0381 12.4777C35.0607 12.5013 35.0737 12.5337 35.0737 12.5677V13.018C35.0737 13.088 35.1288 13.1453 35.1962 13.1453H35.586C35.6186 13.1451 35.6498 13.1315 35.6727 13.1077C35.6956 13.0838 35.7084 13.0515 35.7082 13.018V12.5673C35.7082 12.534 35.7212 12.5013 35.7438 12.4777L35.7503 12.471C35.7616 12.4594 35.7751 12.4501 35.7899 12.4438C35.8047 12.4375 35.8205 12.4343 35.8365 12.4343H36.3142C36.3466 12.4343 36.3774 12.4477 36.4004 12.471L36.4068 12.4777C36.4182 12.4895 36.4273 12.5036 36.4334 12.519C36.4395 12.5345 36.4426 12.551 36.4425 12.5677V13.018C36.4425 13.088 36.4969 13.1453 36.5647 13.1453H36.9548C37.0222 13.1453 37.0766 13.0883 37.0766 13.018V12.5673C37.0766 12.534 37.0896 12.5013 37.1123 12.4777L37.1188 12.471C37.1301 12.4593 37.1435 12.45 37.1583 12.4437C37.1731 12.4375 37.189 12.4343 37.205 12.4343H37.6392C37.7063 12.4343 37.7614 12.3777 37.7614 12.307V9.92501C37.7614 9.89158 37.7485 9.85952 37.7256 9.83579C37.7028 9.81207 37.6717 9.7986 37.6392 9.79834H37.2487C37.2326 9.79843 37.2167 9.80177 37.2019 9.80819C37.1871 9.8146 37.1736 9.82395 37.1623 9.83572C37.151 9.84748 37.142 9.86142 37.1359 9.87674C37.1299 9.89206 37.1268 9.90846 37.1269 9.92501V12.3527C37.1268 12.3863 37.114 12.4186 37.0912 12.4427ZM36.669 15.0527L36.6573 15.0647C36.6469 15.0756 36.6344 15.0843 36.6207 15.0902C36.6069 15.0961 36.5922 15.0993 36.5773 15.0993H35.562C35.5318 15.0991 35.5029 15.0865 35.4817 15.0644C35.4604 15.0423 35.4485 15.0124 35.4486 14.9813V13.8963C35.4488 13.8809 35.446 13.8656 35.4404 13.8513C35.4348 13.837 35.4264 13.824 35.4159 13.813C35.4053 13.802 35.3928 13.7933 35.3789 13.7873C35.3651 13.7814 35.3502 13.7783 35.3352 13.7783H34.9269C34.9119 13.7783 34.8971 13.7814 34.8832 13.7873C34.8694 13.7933 34.8568 13.802 34.8463 13.813C34.8357 13.824 34.8274 13.837 34.8218 13.8513C34.8161 13.8656 34.8133 13.8809 34.8135 13.8963V17.013C34.8135 17.0773 34.8637 17.1307 34.9269 17.1307H35.3352C35.3978 17.1307 35.4486 17.0773 35.4486 17.0127V15.8767C35.4486 15.8113 35.4992 15.7587 35.562 15.7587H36.5779C36.6077 15.7587 36.6363 15.7713 36.6577 15.7933L36.669 15.805C36.6902 15.827 36.7022 15.8567 36.7024 15.8877V17.0127C36.7024 17.0773 36.7529 17.1303 36.8158 17.1303H37.2241C37.287 17.1303 37.3375 17.0773 37.3375 17.0127V15.928C37.3376 15.9126 37.3348 15.8973 37.3292 15.8831C37.3235 15.8688 37.3152 15.8558 37.3046 15.8449C37.2941 15.8339 37.2815 15.8252 37.2677 15.8193C37.2539 15.8134 37.2391 15.8103 37.2241 15.8103H36.7769C36.7467 15.8101 36.7178 15.7977 36.6965 15.7757L36.6855 15.764C36.6749 15.7531 36.6665 15.7401 36.6608 15.7258C36.655 15.7115 36.6521 15.6961 36.6521 15.6807V15.1763C36.6521 15.145 36.6638 15.115 36.6855 15.093L36.6969 15.0813C36.7072 15.0704 36.7196 15.0617 36.7333 15.0557C36.747 15.0497 36.7617 15.0467 36.7766 15.0467H37.2238C37.287 15.0467 37.3372 14.9937 37.3372 14.9287V13.8963C37.3374 13.8809 37.3345 13.8656 37.3289 13.8513C37.3233 13.837 37.315 13.824 37.3044 13.813C37.2939 13.802 37.2813 13.7933 37.2675 13.7873C37.2536 13.7814 37.2388 13.7783 37.2238 13.7783H36.8155C36.8005 13.7783 36.7856 13.7814 36.7718 13.7873C36.7579 13.7933 36.7454 13.802 36.7348 13.813C36.7243 13.824 36.7159 13.837 36.7103 13.8513C36.7047 13.8656 36.7019 13.8809 36.702 13.8963V14.969C36.702 15.0001 36.6901 15.03 36.669 15.0523V15.0527ZM36.6635 22.3157V21.874C36.6635 21.804 36.609 21.7473 36.5416 21.7473H35.6094C35.5932 21.7474 35.5773 21.7507 35.5624 21.7571C35.5476 21.7635 35.5341 21.7728 35.5227 21.7846C35.5114 21.7964 35.5024 21.8103 35.4963 21.8257C35.4902 21.841 35.4871 21.8574 35.4872 21.874V22.3157C35.4872 22.349 35.4742 22.3813 35.4516 22.405L35.447 22.4097C35.4243 22.4332 35.3934 22.4466 35.3611 22.447H34.9353C34.9193 22.447 34.9034 22.4504 34.8885 22.4567C34.8737 22.4631 34.8603 22.4724 34.8489 22.4842C34.8376 22.4959 34.8287 22.5098 34.8226 22.5251C34.8165 22.5404 34.8134 22.5568 34.8135 22.5733V24.9673C34.8135 25.0373 34.8676 25.094 34.9353 25.094H35.3161C35.3835 25.094 35.4379 25.0373 35.4379 24.9673V22.528C35.4379 22.4947 35.4509 22.4627 35.4739 22.4387L35.4791 22.433C35.5018 22.4097 35.5326 22.3963 35.5653 22.3963H36.5857C36.6181 22.3963 36.6489 22.4097 36.6716 22.433L36.6771 22.4387C36.7 22.4624 36.7128 22.4946 36.7127 22.528V24.9673C36.7127 25.0373 36.7675 25.094 36.8349 25.094H37.2157C37.2827 25.094 37.3372 25.0373 37.3372 24.9673V22.5733C37.3373 22.5568 37.3342 22.5405 37.3281 22.5252C37.3221 22.5099 37.3131 22.496 37.3019 22.4843C37.2906 22.4726 37.2772 22.4632 37.2624 22.4568C37.2476 22.4504 37.2317 22.4471 37.2157 22.447H36.7895C36.7572 22.4467 36.7264 22.4333 36.7037 22.4097L36.6995 22.405C36.6765 22.3813 36.6635 22.3492 36.6635 22.3157ZM36.7056 27.7803C36.6947 27.7691 36.6861 27.7558 36.6802 27.7412C36.6743 27.7265 36.6713 27.7108 36.6713 27.695V27.2663C36.6714 27.2489 36.6682 27.2316 36.6618 27.2155C36.6554 27.1993 36.646 27.1846 36.634 27.1722C36.6221 27.1598 36.6079 27.15 36.5923 27.1433C36.5767 27.1365 36.5599 27.133 36.5429 27.133H35.5549C35.5396 27.133 35.5245 27.1299 35.5104 27.1237C35.4963 27.1176 35.4836 27.1086 35.4729 27.0973L35.4648 27.0897C35.443 27.0668 35.4308 27.036 35.4308 27.004V26.5197C35.4308 26.4877 35.4431 26.4567 35.4648 26.4343L35.4726 26.4263C35.4945 26.4039 35.5241 26.3913 35.5549 26.3913H36.5958C36.6265 26.3913 36.6564 26.404 36.6781 26.4263L36.6858 26.4343C36.6967 26.4455 36.7053 26.4589 36.7111 26.4735C36.717 26.4882 36.72 26.5038 36.7199 26.5197V27.7953L36.7056 27.7803ZM37.2212 26.4407H36.7944C36.7636 26.4406 36.734 26.428 36.7121 26.4057L36.7056 26.3983C36.6946 26.3872 36.6858 26.3739 36.6799 26.3593C36.6739 26.3446 36.6709 26.3289 36.6709 26.313V25.8703C36.6711 25.8546 36.6682 25.8389 36.6624 25.8243C36.6566 25.8096 36.6481 25.7963 36.6373 25.7851C36.6266 25.7738 36.6137 25.7649 36.5996 25.7588C36.5855 25.7526 36.5703 25.7494 36.5549 25.7493H35.5958C35.5804 25.7494 35.5652 25.7526 35.5511 25.7588C35.5369 25.7649 35.5241 25.7738 35.5133 25.7851C35.5026 25.7963 35.494 25.8096 35.4883 25.8243C35.4825 25.8389 35.4796 25.8546 35.4797 25.8703V26.313C35.4797 26.345 35.4671 26.376 35.4454 26.3983L35.4383 26.4057C35.4275 26.4168 35.4147 26.4256 35.4007 26.4316C35.3866 26.4376 35.3715 26.4407 35.3563 26.4407H34.9295C34.8985 26.4409 34.8689 26.4538 34.8472 26.4765C34.8254 26.4992 34.8133 26.5298 34.8135 26.5617V28.937C34.8135 29.0037 34.8653 29.0583 34.9295 29.0583H35.3145C35.379 29.0583 35.4311 29.004 35.4311 28.937V27.1103L35.4454 27.1253C35.4671 27.148 35.4797 27.179 35.4797 27.211V27.654C35.4797 27.7207 35.5316 27.7747 35.5958 27.7747L36.5964 27.773C36.6272 27.773 36.6567 27.7863 36.6781 27.8083L36.6862 27.817C36.7077 27.8394 36.7198 27.8695 36.7199 27.901V28.937C36.7199 29.0037 36.7717 29.0583 36.8359 29.0583H37.2208C37.2363 29.0583 37.2515 29.0551 37.2657 29.049C37.28 29.0429 37.2929 29.0339 37.3037 29.0226C37.3145 29.0113 37.3231 28.998 37.3289 28.9833C37.3347 28.9686 37.3376 28.9529 37.3375 28.937V26.5617C37.3376 26.5459 37.3347 26.5302 37.3289 26.5155C37.3232 26.5009 37.3146 26.4875 37.3038 26.4763C37.293 26.465 37.2801 26.4561 37.2659 26.45C37.2518 26.4439 37.2365 26.4407 37.2212 26.4407Z" fill="#222222"/>
</svg>
