<svg width="10" height="27" viewBox="0 0 10 27" fill="none" xmlns="http://www.w3.org/2000/svg">
<path d="M0.713933 0.600925C0.46368 0.683836 0.25945 0.882227 0.135761 1.16649C0.0868609 1.27605 0.0839844 1.41522 0.0839844 3.01717V4.7494L0.158773 4.91522C0.253697 5.11954 0.411903 5.29128 0.601751 5.38603L0.745575 5.46006L2.6009 5.47487L4.45623 5.48967L4.62019 5.56962C4.81867 5.66438 5.00852 5.85389 5.10344 6.05228L5.17535 6.20033L5.18974 16.0163L5.20412 25.8323L5.27891 25.9981C5.37383 26.2024 5.53491 26.3742 5.72476 26.4719L5.86571 26.543H7.5916H9.31748L9.45843 26.4719C9.64828 26.3742 9.80936 26.2024 9.90429 25.9981L9.97907 25.8323L9.9877 16.342C9.99346 9.84542 9.98483 6.78663 9.96469 6.65042C9.91292 6.30693 9.76334 6.08781 9.46706 5.92495L9.31748 5.845L7.46215 5.8302L5.60683 5.81539L5.46588 5.74729C5.27028 5.65549 5.14947 5.55482 5.04591 5.40084C4.85319 5.11362 4.86182 5.20837 4.84456 3.106L4.83018 1.1961L4.76402 1.06878C4.67772 0.902956 4.50513 0.731213 4.33255 0.645342L4.19735 0.574274L2.51461 0.568354C1.20006 0.562431 0.805981 0.571314 0.713933 0.600925ZM8.52933 6.77774C8.57535 6.80439 8.58398 6.84289 8.58398 7.00871C8.58398 7.12715 8.5696 7.22487 8.54946 7.24559C8.52358 7.27224 8.31647 7.28113 7.7872 7.28113C7.09972 7.28113 7.05945 7.28409 7.03068 7.33739C6.99329 7.40845 6.99329 7.7549 7.03068 7.81412C7.05082 7.84966 7.15437 7.8615 7.53982 7.87334L8.02307 7.88815L8.0317 8.11023C8.03745 8.23163 8.05471 8.34712 8.07197 8.36784C8.0921 8.39153 8.17552 8.40634 8.30784 8.40634C8.43153 8.40634 8.52933 8.42114 8.54946 8.44187C8.5696 8.4626 8.58398 8.56031 8.58398 8.67283C8.58398 8.78536 8.5696 8.88307 8.54946 8.9038C8.52933 8.92453 8.43153 8.93933 8.31072 8.93933C8.1899 8.93933 8.0921 8.95414 8.07197 8.97487C8.05183 8.99559 8.03745 9.09627 8.03745 9.22656C8.03745 9.40718 8.02882 9.44568 7.9828 9.47233C7.8965 9.5197 6.6251 9.51082 6.55894 9.46344C6.51867 9.43383 6.51292 9.38942 6.51867 9.20583L6.5273 8.98375L7.25793 8.97487C7.7383 8.9719 8.00293 8.9571 8.02882 8.93637C8.05471 8.91268 8.06622 8.82681 8.06622 8.66988C8.06622 8.47148 8.05759 8.43299 8.01156 8.40634C7.97992 8.39153 7.76706 8.37673 7.52544 8.37673C7.20902 8.37673 7.08821 8.36784 7.0652 8.33823C7.04794 8.3175 7.03068 8.20202 7.02493 8.08062L7.0163 7.85854L6.79481 7.84966C6.65386 7.84373 6.56469 7.82597 6.54168 7.80228C6.52442 7.77563 6.51292 7.67495 6.51867 7.5417L6.5273 7.32554L6.74304 7.31666C6.86097 7.31074 6.97315 7.29297 6.99329 7.2752C7.0163 7.25448 7.03068 7.16861 7.03068 7.02647C7.03068 6.85177 7.03931 6.80439 7.08246 6.7807C7.14862 6.73925 8.45454 6.73925 8.52933 6.77774ZM7.9828 10.0053C8.02882 10.032 8.03745 10.0705 8.03745 10.2511C8.03745 10.3814 8.05183 10.4821 8.07197 10.5028C8.0921 10.5235 8.1899 10.5383 8.31072 10.5383C8.43153 10.5383 8.52933 10.5531 8.54946 10.5738C8.5696 10.5946 8.58398 10.6923 8.58398 10.8107C8.58398 10.9766 8.57535 11.0151 8.52933 11.0417C8.45166 11.0832 8.14388 11.0802 8.10073 11.0358C8.0806 11.0151 8.06622 10.9144 8.06622 10.79C8.06622 10.6656 8.05183 10.565 8.0317 10.5442C8.00869 10.5205 7.85911 10.5087 7.54557 10.5087C7.17163 10.5087 7.08534 10.5176 7.04794 10.5561C7.00767 10.5946 7.00192 10.7071 7.00192 11.3408C7.00192 11.7968 7.01342 12.1047 7.03068 12.1403C7.05945 12.1936 7.09684 12.1965 7.52831 12.1965C7.85623 12.1965 8.00869 12.1847 8.0317 12.161C8.05183 12.1403 8.06622 12.0396 8.06622 11.9093C8.06622 11.6576 8.08923 11.6339 8.3251 11.6339C8.55809 11.6339 8.58398 11.6606 8.58398 11.8945C8.58398 12.0129 8.5696 12.1107 8.54946 12.1314C8.52933 12.1521 8.43153 12.1669 8.30496 12.1669C8.05471 12.1669 8.03745 12.1876 8.03745 12.4689C8.03745 12.5785 8.02307 12.6733 8.00293 12.694C7.97992 12.7177 7.8361 12.7295 7.54557 12.7295C7.03356 12.7295 7.03068 12.7295 7.03068 12.4364C7.03068 12.3061 7.0163 12.2232 6.99329 12.2024C6.97315 12.1847 6.86097 12.1669 6.74304 12.161L6.5273 12.1521V11.3526V10.5531L6.74304 10.5442C6.86097 10.5383 6.97315 10.5206 6.99329 10.5028C7.0163 10.4821 7.03068 10.3991 7.03068 10.2689C7.03068 9.97867 7.03356 9.97571 7.52256 9.97571C7.74693 9.97571 7.95116 9.99052 7.9828 10.0053ZM7.00192 13.7422C7.01055 14.0117 7.02781 14.2456 7.03931 14.2604C7.05369 14.2722 7.28094 14.29 7.5427 14.2989L8.02307 14.3137L8.04033 14.5506C8.04896 14.6898 8.05759 14.4825 8.06046 14.0561C8.06334 13.6563 8.07484 13.3069 8.08347 13.2803C8.09786 13.2418 8.14676 13.2329 8.3251 13.2329C8.50344 13.2329 8.55234 13.2418 8.56672 13.2803C8.57535 13.3069 8.58398 13.9021 8.58398 14.6068C8.58398 15.5633 8.57535 15.8949 8.54946 15.9216C8.50344 15.9689 8.14676 15.9689 8.10073 15.9216C8.07772 15.8979 8.06622 15.7321 8.06622 15.3738C8.06622 14.9 8.06334 14.8615 8.01156 14.8319C7.97992 14.8141 7.76131 14.8023 7.50818 14.8023C6.99617 14.8023 7.03931 14.8289 7.02205 14.4914C7.0163 14.3936 7.01055 14.6779 7.00767 15.1191L7.00192 15.9275L6.93576 15.9423C6.89836 15.9541 6.79194 15.9571 6.69989 15.9512L6.5273 15.9423L6.51867 14.6246C6.51579 13.8991 6.51867 13.2892 6.5273 13.2684C6.53593 13.2418 6.60209 13.2329 6.76317 13.2388L6.98754 13.2477L7.00192 13.7422ZM8.0317 16.6678C8.0432 17.0024 8.03457 16.9935 8.27907 16.9935C8.59836 16.9935 8.58398 16.952 8.58398 17.8078C8.58398 18.2046 8.57535 18.548 8.56672 18.5747C8.55234 18.6132 8.50344 18.6221 8.34236 18.6221C8.23018 18.6221 8.11799 18.6369 8.09498 18.6517C8.06334 18.6695 8.04896 18.7494 8.03745 18.9241L8.02307 19.1699L7.56571 19.1788C7.25505 19.1847 7.09684 19.1758 7.07095 19.1521C7.04219 19.1284 7.03068 19.0485 7.03068 18.9004C7.03068 18.7612 7.01918 18.6754 6.99617 18.6606C6.97603 18.6487 6.86097 18.631 6.74304 18.6221L6.5273 18.6073L6.51867 17.8403C6.51292 17.3133 6.52155 17.0616 6.54456 17.0349C6.56469 17.0112 6.65674 16.9935 6.79481 16.9876L7.0163 16.9787L7.02493 16.7566C7.03068 16.6352 7.04794 16.5197 7.0652 16.499C7.08821 16.4694 7.20327 16.4605 7.55996 16.4664L8.02307 16.4753L8.0317 16.6678ZM8.03745 19.9486C8.04896 20.1233 8.06334 20.2033 8.09498 20.2211C8.11799 20.2359 8.23018 20.2507 8.34236 20.2507C8.50344 20.2507 8.55234 20.2596 8.56672 20.298C8.57535 20.3247 8.58398 20.6771 8.58398 21.0798C8.58398 21.9355 8.60699 21.8793 8.27045 21.8793C8.03745 21.8793 8.0432 21.8704 8.0317 22.205L8.02307 22.3975L7.56571 22.4063C7.26368 22.4123 7.09684 22.4034 7.07095 22.3797C7.04794 22.359 7.03068 22.2642 7.02493 22.1221L7.0163 21.8941L6.79481 21.8852C6.65674 21.8793 6.56469 21.8615 6.54456 21.8378C6.52155 21.8112 6.51292 21.5595 6.51867 21.0324L6.5273 20.2655L6.74304 20.2507C6.86097 20.2418 6.97603 20.224 6.99617 20.2122C7.01918 20.1974 7.03068 20.1115 7.03068 19.9723C7.03068 19.845 7.04507 19.7443 7.0652 19.7236C7.09109 19.6969 7.22916 19.6881 7.56283 19.694L8.02307 19.7029L8.03745 19.9486ZM6.95589 22.9334C6.99617 22.9482 7.00192 23.0696 7.00192 23.9964C7.00192 24.9085 7.00767 25.0506 7.04794 25.0891C7.08534 25.1305 7.19464 25.1365 7.80446 25.1365C8.31935 25.1365 8.52358 25.1453 8.54946 25.172C8.58398 25.2075 8.59836 25.5096 8.56672 25.5925C8.55234 25.6339 8.45742 25.6398 7.80446 25.6398H7.05945L7.04507 25.5717C7.03644 25.5362 7.02781 25.4207 7.02493 25.3141L7.0163 25.1216L6.82933 25.1128C6.72578 25.1098 6.61359 25.1009 6.57908 25.092L6.51292 25.0772V24.0142C6.51292 23.191 6.52155 22.9482 6.55031 22.9364C6.60209 22.9127 6.90412 22.9127 6.95589 22.9334Z" fill="#44EB99"/>
</svg>
