<svg width="33" height="27" viewBox="0 0 33 27" fill="none" xmlns="http://www.w3.org/2000/svg">
<path d="M1.11934 0.616547C0.938126 0.67873 0.788549 0.794212 0.676366 0.954111C0.506654 1.19692 0.503778 1.21469 0.512407 3.08017C0.521036 4.7443 0.521036 4.78279 0.581442 4.91604C0.670613 5.11443 0.831696 5.28321 1.01867 5.37797L1.18263 5.46088L7.97112 5.47568L14.7596 5.49049L14.9207 5.5734C15.1134 5.66815 15.3292 5.89616 15.4154 6.09159C15.4787 6.23076 15.4787 6.23668 15.4787 8.28871V10.3467L15.3982 10.5125C15.3061 10.7109 15.0847 10.933 14.8948 11.0218L14.7596 11.0869L10.5312 11.1017L6.30276 11.1165L6.17044 11.1787C5.97772 11.2705 5.81376 11.4363 5.72171 11.6288L5.64117 11.7976L5.62679 13.7075L5.6124 15.6174L5.53186 15.7832C5.43982 15.9816 5.21833 16.2037 5.02848 16.2925C4.89616 16.3577 4.8674 16.3577 3.03796 16.3725C1.22002 16.3873 1.17975 16.3873 1.05031 16.4495C0.857585 16.5413 0.693625 16.7071 0.601578 16.8995L0.521036 17.0683V18.845V20.6216L0.598701 20.7697C0.690749 20.9473 0.848955 21.1072 1.02442 21.202L1.15386 21.2731L3.00919 21.2879L4.86452 21.3027L5.03999 21.3856C5.24997 21.4863 5.41968 21.658 5.53186 21.8801L5.6124 22.0429L5.62679 23.9528L5.64117 25.8627L5.70733 26.0108C5.79075 26.1973 5.94608 26.3632 6.13017 26.4638L6.274 26.5438L12.8957 26.5527L19.5173 26.5586L19.6841 26.4964C19.9085 26.4076 20.1214 26.1885 20.2077 25.9545C20.2681 25.7828 20.2709 25.768 20.2623 24.0594L20.2537 22.3391L20.1731 22.1703C20.084 21.9808 19.9171 21.8149 19.7215 21.7202L19.5921 21.658L12.8036 21.6432L6.01511 21.6284L5.87992 21.5632C5.69007 21.4744 5.46858 21.2523 5.37653 21.0539L5.29599 20.8881V18.8302V16.7722L5.37941 16.6005C5.48296 16.3932 5.66418 16.2155 5.87992 16.1119L6.04388 16.0319L10.2723 16.0171L14.5007 16.0023L14.6446 15.9224C14.8171 15.8276 14.9725 15.6648 15.0645 15.4841L15.1336 15.3509L15.1479 13.441L15.1623 11.5311L15.2457 11.3475C15.3435 11.1254 15.519 10.9507 15.7462 10.8412L15.9102 10.7612L17.7655 10.7464L19.6209 10.7316L19.7647 10.6517C19.9373 10.5569 20.0926 10.394 20.1847 10.2134L20.2537 10.0802V8.28871V6.49726L20.176 6.3492C20.0782 6.15969 19.9171 5.9998 19.7359 5.91392L19.5921 5.84582L17.7368 5.83101L15.8814 5.81621L15.7232 5.7333C15.5075 5.61782 15.3407 5.44311 15.2429 5.22695L15.1623 5.04633L15.1479 3.13643L15.1336 1.22653L15.0559 1.07848C14.9552 0.877121 14.7625 0.699455 14.5611 0.622467L14.3972 0.560286H7.83305C1.60835 0.563246 1.26029 0.566208 1.11934 0.616547Z" fill="#44EB99"/>
<path d="M23.2139 0.600925C22.9637 0.683836 22.7594 0.882227 22.6358 1.16649C22.5869 1.27605 22.584 1.41522 22.584 3.01717V4.7494L22.6588 4.91522C22.7537 5.11954 22.9119 5.29128 23.1018 5.38603L23.2456 5.46006L25.1009 5.47487L26.9562 5.48967L27.1202 5.56962C27.3187 5.66438 27.5085 5.85389 27.6034 6.05228L27.6754 6.20033L27.6897 16.0163L27.7041 25.8323L27.7789 25.9981C27.8738 26.2024 28.0349 26.3742 28.2248 26.4719L28.3657 26.543H30.0916H31.8175L31.9584 26.4719C32.1483 26.3742 32.3094 26.2024 32.4043 25.9981L32.4791 25.8323L32.4877 16.342C32.4935 9.84542 32.4848 6.78663 32.4647 6.65042C32.4129 6.30693 32.2633 6.08781 31.9671 5.92495L31.8175 5.845L29.9622 5.8302L28.1068 5.81539L27.9659 5.74729C27.7703 5.65549 27.6495 5.55482 27.5459 5.40084C27.3532 5.11362 27.3618 5.20837 27.3446 3.106L27.3302 1.1961L27.264 1.06878C27.1777 0.902956 27.0051 0.731213 26.8325 0.645342L26.6974 0.574274L25.0146 0.568354C23.7001 0.562431 23.306 0.571314 23.2139 0.600925ZM31.0293 6.77774C31.0754 6.80439 31.084 6.84289 31.084 7.00871C31.084 7.12715 31.0696 7.22487 31.0495 7.24559C31.0236 7.27224 30.8165 7.28113 30.2872 7.28113C29.5997 7.28113 29.5594 7.28409 29.5307 7.33739C29.4933 7.40845 29.4933 7.7549 29.5307 7.81412C29.5508 7.84966 29.6544 7.8615 30.0398 7.87334L30.5231 7.88815L30.5317 8.11023C30.5375 8.23163 30.5547 8.34712 30.572 8.36784C30.5921 8.39153 30.6755 8.40634 30.8078 8.40634C30.9315 8.40634 31.0293 8.42114 31.0495 8.44187C31.0696 8.4626 31.084 8.56031 31.084 8.67283C31.084 8.78536 31.0696 8.88307 31.0495 8.9038C31.0293 8.92453 30.9315 8.93933 30.8107 8.93933C30.6899 8.93933 30.5921 8.95414 30.572 8.97487C30.5518 8.99559 30.5375 9.09627 30.5375 9.22656C30.5375 9.40718 30.5288 9.44568 30.4828 9.47233C30.3965 9.5197 29.1251 9.51082 29.0589 9.46344C29.0187 9.43383 29.0129 9.38942 29.0187 9.20583L29.0273 8.98375L29.7579 8.97487C30.2383 8.9719 30.5029 8.9571 30.5288 8.93637C30.5547 8.91268 30.5662 8.82681 30.5662 8.66988C30.5662 8.47148 30.5576 8.43299 30.5116 8.40634C30.4799 8.39153 30.2671 8.37673 30.0254 8.37673C29.709 8.37673 29.5882 8.36784 29.5652 8.33823C29.5479 8.3175 29.5307 8.20202 29.5249 8.08062L29.5163 7.85854L29.2948 7.84966C29.1539 7.84373 29.0647 7.82597 29.0417 7.80228C29.0244 7.77563 29.0129 7.67495 29.0187 7.5417L29.0273 7.32554L29.243 7.31666C29.361 7.31074 29.4732 7.29297 29.4933 7.2752C29.5163 7.25448 29.5307 7.16861 29.5307 7.02647C29.5307 6.85177 29.5393 6.80439 29.5825 6.7807C29.6486 6.73925 30.9545 6.73925 31.0293 6.77774ZM30.4828 10.0053C30.5288 10.032 30.5375 10.0705 30.5375 10.2511C30.5375 10.3814 30.5518 10.4821 30.572 10.5028C30.5921 10.5235 30.6899 10.5383 30.8107 10.5383C30.9315 10.5383 31.0293 10.5531 31.0495 10.5738C31.0696 10.5946 31.084 10.6923 31.084 10.8107C31.084 10.9766 31.0754 11.0151 31.0293 11.0417C30.9517 11.0832 30.6439 11.0802 30.6007 11.0358C30.5806 11.0151 30.5662 10.9144 30.5662 10.79C30.5662 10.6656 30.5518 10.565 30.5317 10.5442C30.5087 10.5205 30.3591 10.5087 30.0456 10.5087C29.6716 10.5087 29.5853 10.5176 29.5479 10.5561C29.5077 10.5946 29.5019 10.7071 29.5019 11.3408C29.5019 11.7968 29.5134 12.1047 29.5307 12.1403C29.5594 12.1936 29.5968 12.1965 30.0283 12.1965C30.3562 12.1965 30.5087 12.1847 30.5317 12.161C30.5518 12.1403 30.5662 12.0396 30.5662 11.9093C30.5662 11.6576 30.5892 11.6339 30.8251 11.6339C31.0581 11.6339 31.084 11.6606 31.084 11.8945C31.084 12.0129 31.0696 12.1107 31.0495 12.1314C31.0293 12.1521 30.9315 12.1669 30.805 12.1669C30.5547 12.1669 30.5375 12.1876 30.5375 12.4689C30.5375 12.5785 30.5231 12.6733 30.5029 12.694C30.4799 12.7177 30.3361 12.7295 30.0456 12.7295C29.5336 12.7295 29.5307 12.7295 29.5307 12.4364C29.5307 12.3061 29.5163 12.2232 29.4933 12.2024C29.4732 12.1847 29.361 12.1669 29.243 12.161L29.0273 12.1521V11.3526V10.5531L29.243 10.5442C29.361 10.5383 29.4732 10.5206 29.4933 10.5028C29.5163 10.4821 29.5307 10.3991 29.5307 10.2689C29.5307 9.97867 29.5336 9.97571 30.0226 9.97571C30.2469 9.97571 30.4512 9.99052 30.4828 10.0053ZM29.5019 13.7422C29.5105 14.0117 29.5278 14.2456 29.5393 14.2604C29.5537 14.2722 29.7809 14.29 30.0427 14.2989L30.5231 14.3137L30.5403 14.5506C30.549 14.6898 30.5576 14.4825 30.5605 14.0561C30.5633 13.6563 30.5748 13.3069 30.5835 13.2803C30.5979 13.2418 30.6468 13.2329 30.8251 13.2329C31.0034 13.2329 31.0523 13.2418 31.0667 13.2803C31.0754 13.3069 31.084 13.9021 31.084 14.6068C31.084 15.5633 31.0754 15.8949 31.0495 15.9216C31.0034 15.9689 30.6468 15.9689 30.6007 15.9216C30.5777 15.8979 30.5662 15.7321 30.5662 15.3738C30.5662 14.9 30.5633 14.8615 30.5116 14.8319C30.4799 14.8141 30.2613 14.8023 30.0082 14.8023C29.4962 14.8023 29.5393 14.8289 29.5221 14.4914C29.5163 14.3936 29.5105 14.6779 29.5077 15.1191L29.5019 15.9275L29.4358 15.9423C29.3984 15.9541 29.2919 15.9571 29.1999 15.9512L29.0273 15.9423L29.0187 14.6246C29.0158 13.8991 29.0187 13.2892 29.0273 13.2684C29.0359 13.2418 29.1021 13.2329 29.2632 13.2388L29.4875 13.2477L29.5019 13.7422ZM30.5317 16.6678C30.5432 17.0024 30.5346 16.9935 30.7791 16.9935C31.0984 16.9935 31.084 16.952 31.084 17.8078C31.084 18.2046 31.0754 18.548 31.0667 18.5747C31.0523 18.6132 31.0034 18.6221 30.8424 18.6221C30.7302 18.6221 30.618 18.6369 30.595 18.6517C30.5633 18.6695 30.549 18.7494 30.5375 18.9241L30.5231 19.1699L30.0657 19.1788C29.755 19.1847 29.5968 19.1758 29.571 19.1521C29.5422 19.1284 29.5307 19.0485 29.5307 18.9004C29.5307 18.7612 29.5192 18.6754 29.4962 18.6606C29.476 18.6487 29.361 18.631 29.243 18.6221L29.0273 18.6073L29.0187 17.8403C29.0129 17.3133 29.0215 17.0616 29.0446 17.0349C29.0647 17.0112 29.1567 16.9935 29.2948 16.9876L29.5163 16.9787L29.5249 16.7566C29.5307 16.6352 29.5479 16.5197 29.5652 16.499C29.5882 16.4694 29.7033 16.4605 30.06 16.4664L30.5231 16.4753L30.5317 16.6678ZM30.5375 19.9486C30.549 20.1233 30.5633 20.2033 30.595 20.2211C30.618 20.2359 30.7302 20.2507 30.8424 20.2507C31.0034 20.2507 31.0523 20.2596 31.0667 20.298C31.0754 20.3247 31.084 20.6771 31.084 21.0798C31.084 21.9355 31.107 21.8793 30.7704 21.8793C30.5375 21.8793 30.5432 21.8704 30.5317 22.205L30.5231 22.3975L30.0657 22.4063C29.7637 22.4123 29.5968 22.4034 29.571 22.3797C29.5479 22.359 29.5307 22.2642 29.5249 22.1221L29.5163 21.8941L29.2948 21.8852C29.1567 21.8793 29.0647 21.8615 29.0446 21.8378C29.0215 21.8112 29.0129 21.5595 29.0187 21.0324L29.0273 20.2655L29.243 20.2507C29.361 20.2418 29.476 20.224 29.4962 20.2122C29.5192 20.1974 29.5307 20.1115 29.5307 19.9723C29.5307 19.845 29.5451 19.7443 29.5652 19.7236C29.5911 19.6969 29.7292 19.6881 30.0628 19.694L30.5231 19.7029L30.5375 19.9486ZM29.4559 22.9334C29.4962 22.9482 29.5019 23.0696 29.5019 23.9964C29.5019 24.9085 29.5077 25.0506 29.5479 25.0891C29.5853 25.1305 29.6946 25.1365 30.3045 25.1365C30.8193 25.1365 31.0236 25.1453 31.0495 25.172C31.084 25.2075 31.0984 25.5096 31.0667 25.5925C31.0523 25.6339 30.9574 25.6398 30.3045 25.6398H29.5594L29.5451 25.5717C29.5364 25.5362 29.5278 25.4207 29.5249 25.3141L29.5163 25.1216L29.3293 25.1128C29.2258 25.1098 29.1136 25.1009 29.0791 25.092L29.0129 25.0772V24.0142C29.0129 23.191 29.0215 22.9482 29.0503 22.9364C29.1021 22.9127 29.4041 22.9127 29.4559 22.9334Z" fill="#44EB99"/>
<path d="M29.5192 17.0418C29.5106 17.0654 29.502 17.4237 29.502 17.8383C29.502 18.4394 29.5106 18.5934 29.5422 18.62C29.5681 18.6437 29.7321 18.6526 30.0657 18.6467L30.5519 18.6378V17.8235V17.0092L30.0456 17.0003C29.5998 16.9944 29.5365 17.0003 29.5192 17.0418Z" fill="#44EB99"/>
<path d="M29.5365 20.2579C29.5106 20.2845 29.502 20.4948 29.502 21.0544C29.502 21.7088 29.5077 21.8243 29.548 21.8628C29.5854 21.9013 29.6717 21.9102 30.0312 21.9102C30.3361 21.9102 30.4828 21.8983 30.5173 21.8717C30.5634 21.8391 30.5662 21.7621 30.5605 21.0366L30.5519 20.2371L30.0629 20.2283C29.7062 20.2223 29.5624 20.2312 29.5365 20.2579Z" fill="#44EB99"/>
</svg>
